<svg version="1.1" viewBox="0.0 0.0 289.87926509186354 100.0" fill="none" stroke="none" stroke-linecap="square" stroke-miterlimit="10" xmlns:xlink="http://www.w3.org/1999/xlink" xmlns="http://www.w3.org/2000/svg"><clipPath id="p.0"><path d="m0 0l289.87927 0l0 100.0l-289.87927 0l0 -100.0z" clip-rule="nonzero"/></clipPath><g clip-path="url(#p.0)"><path fill="#000000" fill-opacity="0.0" d="m0 0l289.87927 0l0 100.0l-289.87927 0z" fill-rule="evenodd"/><path fill="#000000" fill-opacity="0.0" d="m-0.010498688 25.417322l289.88977 0l0 49.16536l-289.88977 0z" fill-rule="evenodd"/><path fill="#4a86e8" d="m27.04181 59.696873l12.4375 0l0 4.703121l-18.296875 0l0 -28.437496l5.859375 0l0 23.734375zm36.847656 -23.734375l0 18.734375q0 4.65625 -2.921875 7.375q-2.921875 2.7187462 -7.96875 2.7187462q-4.984375 0 -7.921875 -2.6406212q-2.921875 -2.640625 -2.984375 -7.25l0 -18.9375l5.859375 0l0 18.765625q0 2.796875 1.328125 4.078125q1.34375 1.28125 3.71875 1.28125q4.9375 0 5.015625 -5.203125l0 -18.921875l5.875 0zm27.9375 28.437496l-5.859375 0l-11.40625 -18.718746l0 18.718746l-5.859375 0l0 -28.437496l5.859375 0l11.421875 18.75l0 -18.75l5.84375 0l0 28.437496zm27.429688 -9.468746q-0.328125 4.578125 -3.390625 7.21875q-3.046875 2.6406212 -8.046875 2.6406212q-5.46875 0 -8.609375 -3.6718712q-3.125 -3.6875 -3.125 -10.125l0 -1.734375q0 -4.09375 1.4375 -7.21875q1.453125 -3.125 4.125 -4.796875q2.6875 -1.671875 6.25 -1.671875q4.921875 0 7.921875 2.640625q3.015625 2.625 3.484375 7.390625l-5.859375 0q-0.21875 -2.75 -1.546875 -3.984375q-1.3125 -1.25 -4.0 -1.25q-2.9375 0 -4.390625 2.109375q-1.453125 2.09375 -1.484375 6.515625l0 2.140625q0 4.609375 1.390625 6.75q1.390625 2.125 4.40625 2.125q2.71875 0 4.046875 -1.234375q1.34375 -1.25 1.53125 -3.84375l5.859375 0zm27.0 9.468746l-5.859375 0l0 -12.187496l-11.421875 0l0 12.187496l-5.859375 0l0 -28.437496l5.859375 0l0 11.515625l11.421875 0l0 -11.515625l5.859375 0l0 28.437496z" fill-rule="nonzero"/><path fill="#cfe2f3" d="m167.42462 58.540623l-10.265625 0l-1.953125 5.859371l-6.234375 0l10.578125 -28.437496l5.4375 0l10.640625 28.437496l-6.234375 0l-1.96875 -5.859371zm-8.6875 -4.75l7.109375 0l-3.578125 -10.640625l-3.53125 10.640625z" fill-rule="nonzero"/><path fill="#0000ff" d="m184.15118 54.384373l0 10.015621l-5.859375 0l0 -28.437496l11.09375 0q3.203125 0 5.625 1.171875q2.4375 1.171875 3.734375 3.328125q1.3125 2.15625 1.3125 4.90625q0 4.1875 -2.859375 6.609375q-2.859375 2.40625 -7.921875 2.40625l-5.125 0zm0 -4.75l5.234375 0q2.3125 0 3.53125 -1.09375q1.234375 -1.09375 1.234375 -3.125q0 -2.09375 -1.234375 -3.375q-1.234375 -1.296875 -3.40625 -1.328125l-5.359375 0l0 8.921875zm32.51172 8.90625l-10.265625 0l-1.953125 5.859371l-6.234375 0l10.578125 -28.437496l5.4375 0l10.640625 28.437496l-6.234375 0l-1.96875 -5.859371zm-8.6875 -4.75l7.109375 0l-3.578125 -10.640625l-3.53125 10.640625zm25.414062 5.90625l12.4375 0l0 4.703121l-18.296875 0l0 -28.437496l5.859375 0l0 23.734375zm30.535156 -2.765625q0 -1.65625 -1.171875 -2.546875q-1.171875 -0.890625 -4.21875 -1.875q-3.046875 -0.984375 -4.8125 -1.9375q-4.84375 -2.625 -4.84375 -7.046875q0 -2.3125 1.296875 -4.109375q1.296875 -1.8125 3.71875 -2.828125q2.4375 -1.015625 5.46875 -1.015625q3.046875 0 5.421875 1.109375q2.390625 1.09375 3.703125 3.109375q1.328125 2.015625 1.328125 4.5625l-5.859375 0q0 -1.953125 -1.234375 -3.03125q-1.234375 -1.078125 -3.453125 -1.078125q-2.15625 0 -3.34375 0.90625q-1.1875 0.90625 -1.1875 2.390625q0 1.390625 1.390625 2.328125q1.390625 0.9375 4.109375 1.75q5.0 1.5 7.28125 3.734375q2.296875 2.21875 2.296875 5.546875q0 3.6875 -2.796875 5.796875q-2.796875 2.0937462 -7.515625 2.0937462q-3.28125 0 -5.984375 -1.2031212q-2.6875 -1.203125 -4.109375 -3.28125q-1.421875 -2.09375 -1.421875 -4.859375l5.890625 0q0 4.71875 5.625 4.71875q2.078125 0 3.25 -0.84375q1.171875 -0.859375 1.171875 -2.390625z" fill-rule="nonzero"/></g></svg>