<svg version="1.1" viewBox="0.0 0.0 514.2047244094488 100.0" fill="none" stroke="none" stroke-linecap="square" stroke-miterlimit="10" xmlns:xlink="http://www.w3.org/1999/xlink" xmlns="http://www.w3.org/2000/svg"><clipPath id="p.0"><path d="m0 0l514.2047 0l0 100.0l-514.2047 0l0 -100.0z" clip-rule="nonzero"/></clipPath><g clip-path="url(#p.0)"><path fill="#000000" fill-opacity="0.0" d="m0 0l514.2047 0l0 100.0l-514.2047 0z" fill-rule="evenodd"/><path fill="#000000" fill-opacity="0.0" d="m-9.582677 21.296587l530.5197 0l0 61.291344l-530.5197 0z" fill-rule="evenodd"/><path fill="#4a86e8" d="m19.876398 71.32037l24.890627 0l0 9.421875l-36.609375 0l0 -56.875l11.718749 0l0 47.453125zm73.71094 -47.453125l0 37.453125q0 9.343746 -5.84375 14.781246q-5.828125 5.421875 -15.953125 5.421875q-9.953121 0 -15.812496 -5.265625q-5.859375 -5.28125 -5.984375 -14.499996l0 -37.890625l11.71875 0l0 37.53125q0 5.593746 2.6718712 8.156246q2.6875 2.546875 7.40625 2.546875q9.890625 0 10.046875 -10.390621l0 -37.84375l11.75 0zm55.859383 56.875l-11.71875 0l-22.812508 -37.42187l0 37.42187l-11.71875 0l0 -56.875l11.71875 0l22.859383 37.5l0 -37.5l11.671875 0l0 56.875zm54.890625 -18.953121q-0.671875 9.187496 -6.78125 14.468746q-6.109375 5.265625 -16.109375 5.265625q-10.9375 0 -17.21875 -7.359375q-6.265625 -7.375 -6.265625 -20.218746l0 -3.484375q0 -8.203125 2.890625 -14.453125q2.890625 -6.250002 8.265625 -9.578127q5.375 -3.34375 12.484375 -3.34375q9.84375 0 15.859375 5.28125q6.015625 5.265627 6.953125 14.796877l-11.71875 0q-0.4375 -5.515625 -3.078125 -7.984375q-2.625 -2.484375 -8.015625 -2.484375q-5.859375 0 -8.78125 4.203125q-2.90625 4.1875 -2.984375 13.015625l0 4.296875q0 9.21875 2.796875 13.484371q2.796875 4.25 8.8125 4.25q5.421875 0 8.09375 -2.46875q2.6875 -2.484375 3.078125 -7.687496l11.71875 0zm53.984375 18.953121l-11.71875 0l0 -24.374996l-22.859375 0l0 24.374996l-11.71875 0l0 -56.875l11.71875 0l0 23.046877l22.859375 0l0 -23.046877l11.71875 0l0 56.875z" fill-rule="nonzero"/><path fill="#cfe2f3" d="m300.65765 69.0235l-20.546875 0l-3.90625 11.71875l-12.453125 0l21.171875 -56.875l10.859375 0l21.28125 56.875l-12.453125 0l-3.953125 -11.71875zm-17.375 -9.499996l14.21875 0l-7.15625 -21.28125l-7.0625 21.28125z" fill-rule="nonzero"/><path fill="#4a86e8" d="m334.09515 60.695377l0 20.046871l-11.71875 0l0 -56.875l22.1875 0q6.40625 0 11.265625 2.34375q4.875 2.34375 7.484375 6.656252q2.625 4.3125 2.625 9.828125q0 8.359375 -5.734375 13.1875q-5.71875 4.8125 -15.828125 4.8125l-10.28125 0zm0 -9.484375l10.46875 0q4.65625 0 7.09375 -2.1875q2.4375 -2.1875 2.4375 -6.25q0 -4.1875 -2.46875 -6.765625q-2.453125 -2.578125 -6.78125 -2.65625l-10.75 0l0 17.859375zm65.03906 17.812496l-20.546875 0l-3.90625 11.71875l-12.453125 0l21.171875 -56.875l10.859375 0l21.28125 56.875l-12.453125 0l-3.953125 -11.71875zm-17.375 -9.499996l14.21875 0l-7.15625 -21.28125l-7.0625 21.28125zm50.8125 11.796871l24.890625 0l0 9.421875l-36.609375 0l0 -56.875l11.71875 0l0 47.453125z" fill-rule="nonzero"/><path fill="#4a86e8" d="m493.67328 65.82037q0 -3.3281212 -2.34375 -5.093746q-2.34375 -1.78125 -8.4375 -3.75q-6.09375 -1.984375 -9.65625 -3.890625q-9.6875 -5.234375 -9.6875 -14.109375q0 -4.609375 2.59375 -8.218752q2.609375 -3.609375 7.46875 -5.640625q4.859375 -2.03125 10.921875 -2.03125q6.09375 0 10.859375 2.203125q4.765625 2.203125 7.3906555 6.234375q2.640625 4.015627 2.640625 9.140627l-11.7187805 0q0 -3.90625 -2.46875 -6.078125q-2.453125 -2.171875 -6.90625 -2.171875q-4.296875 0 -6.6875 1.828125q-2.375 1.8125 -2.375 4.78125q0 2.765625 2.796875 4.640625q2.796875 1.875 8.21875 3.515625q10.0 3.015625 14.5625 7.46875q4.5781555 4.453125 4.5781555 11.093746q0 7.375 -5.5937805 11.578125q-5.578125 4.203125 -15.03125 4.203125q-6.5625 0 -11.953125 -2.40625q-5.390625 -2.40625 -8.21875 -6.578125q-2.828125 -4.1875 -2.828125 -9.687496l11.75 0q0 9.406246 11.25 9.406246q4.1875 0 6.53125 -1.6875q2.34375 -1.703125 2.34375 -4.75z" fill-rule="nonzero"/></g></svg>